<svg xmlns="http://www.w3.org/2000/svg" width="1548" height="432"><clipPath id="a"><path d="M217.03 325.58c-78.73 0-142.36-63.47-142.36-141.99S138.3 41.6 217.03 41.6s142.36 63.47 142.36 141.99-63.63 141.99-142.36 141.99"/></clipPath><radialGradient id="b" cx="285.365" cy="121.114" r="235.176" gradientUnits="userSpaceOnUse"><stop offset="0" stop-color="#fefefe"/><stop offset=".05" stop-color="#fffefa"/><stop offset=".11" stop-color="#fffef8"/><stop offset=".41" stop-color="#fff585"/><stop offset=".68" stop-color="#fff212"/><stop offset=".88" stop-color="#fbb12f"/><stop offset="1" stop-color="#fff212"/></radialGradient><path fill="#fbb12f" fill-rule="evenodd" d="M.8.2H1547v431.7H.8z"/><path fill="#ed3237" fill-rule="evenodd" d="M1473.1 337.1h-689l655.1 53.4z"/><g clip-path="url(#a)"><path fill="url(#b)" fill-rule="evenodd" d="M217 325.6c-78.7 0-142.3-63.5-142.3-142s63.6-142 142.3-142c78.8 0 142.4 63.5 142.4 142s-63.6 142-142.4 142"/></g><path fill="#373435" fill-rule="evenodd" d="M157.4 268.7c11.4-.2 17.5-7.8 18.9-23.5l8-81.7c-5-6.9-10.5-10.1-17.2-10.1h-1.3v-3c5.9.2 11.4.2 16.6.2 5.3 0 10.1 0 14.7-.2l39.9 98.2 40.2-98.2c3.8.2 7.8.2 12.4.2s9.9 0 15.3-.2v3c-9.8.4-14 5.5-14 16.7 0 1.2 0 2.5.2 4l5.7 72.4c1.2 15.4 4.8 21.5 17.2 22.2v3c-7.4-.3-14.9-.5-22.9-.5-7.8 0-16 .2-24.3.5v-3c10.6-.9 14.2-6.1 14.2-18 0-1.9 0-3.8-.2-6.1l-5.7-76.2-41.7 102.2h-3.6l-41.5-101.2-6.1 69.3c-.2 2.7-.4 5.3-.4 7.8 0 14.8 5 22.2 15.9 22.2h1.9v3c-7.1-.3-14.2-.5-21.4-.5-6.9 0-13.8.2-20.8.5zm201-77.7c7.3-5.2 16-7.9 25.1-7.9 9.3 0 17.9 2.6 25.4 7.9 12.4 8.7 19.4 22.3 19.4 37.4 0 15-7 28.6-19.4 37.4-7.5 5.2-16.1 8-25.4 8-9.1 0-17.8-2.8-25.1-7.9-12.5-8.7-19.5-22.5-19.5-37.5 0-15.1 7-28.7 19.5-37.4m57 37.4c0-23.1-14.2-41.8-31.9-41.8-17.6 0-31.9 18.7-31.9 41.8 0 23.2 14.3 41.9 31.9 41.9 17.7 0 31.9-18.7 31.9-41.9m90.6 41.1v2.2c-5.7-.2-11.4-.4-16.9-.4-5.7 0-11.4.2-17.1.4v-2.2c8.3-.1 11.3-5 11.3-15.8v-65.2h-12.9c-11.7 0-17.3 3.7-17.9 11.8h-2.1v-20.8h2.1c1.2 5 5.9 5.6 15.8 5.6h41.5c9.9 0 14.7-.6 15.9-5.6h2.1v20.8h-2.1c-.6-8.1-6.3-11.8-18-11.8h-12.9v65.2c0 10.8 3 15.7 11.2 15.8m78.9-82.3c-8.2.1-11.4 5-11.4 15.8v50.7c0 10.8 3.2 15.7 11.4 15.8v2.2c-5.8-.2-11.7-.4-17.4-.4s-11.3.2-17 .4v-2.2c8.2-.1 11.3-5 11.3-15.8V203c0-10.8-3.1-15.7-11.3-15.8v-2.1c5.7.1 11.3.1 17 .1s11.6 0 17.4-.1zm27.2 82.3c8.3-.1 11.3-5 11.3-15.8V203c0-10.9-3-15.7-11.3-15.8v-2.1c5.6.1 11.4.1 17.4.1s12.1 0 18.6-.1v2.1h-1.2c-8.4 0-11.7 4.8-11.7 15.8v52.6c0 9.5 1.9 12.3 11.8 12.3h11.4c11.7 0 18.6-4.7 21-14.5h2.1l-4.5 18.3c-10.3-.2-21-.4-31.8-.4s-21.8.2-33.1.4zm88.5 0c6.6-.2 10-4.7 13.3-14.4l24.6-72.2h8.7l24.7 74.5c2.7 8.1 6.2 12.1 11.6 12.1h.9v2.1c-5-.2-9.9-.3-14.9-.3-5.1 0-10 .1-15.3.3v-2.1c5.3-.3 7.8-2.3 7.8-6.4 0-1.9-.7-3.9-1.5-6.3l-7.3-22.2h-28.5l-7.2 21.9c-.7 2.4-1.2 4.4-1.2 6 0 4.5 2.7 7 8.1 7v2.1c-4.2-.2-8.4-.3-12.3-.3s-7.8.1-11.5.3zm51.1-39.4L739.1 192l-12.9 38.1zm50.9 39.4c8.2-.2 11.2-5 11.2-15.8V203c0-10.9-3-15.7-11.2-15.9V185c5.5.2 11.4.2 17.4.2s12.1 0 18.6-.2v2.1h-1.2c-8.4 0-11.7 4.9-11.7 15.9v52.6c0 9.5 1.9 12.2 11.8 12.2h11.4c11.7 0 18.6-4.6 21-14.4h2.1l-4.5 18.2q-15.6-.3-31.8-.3c-16.2 0-21.9.1-33.1.3zm166.1-110.8c10.2-7.2 22.4-11 35.2-11 13 0 25 3.6 35.5 11 17.4 12.2 27.2 31.2 27.2 52.3s-9.8 40.1-27.2 52.4c-10.5 7.4-22.5 11.2-35.5 11.2-12.8 0-25-3.8-35.2-11-17.5-12.2-27.3-31.5-27.3-52.6s9.8-40.1 27.3-52.3m79.9 52.4c0-32.4-20-58.6-44.7-58.6s-44.7 26.2-44.7 58.6 20 58.6 44.7 58.6 44.7-26.2 44.7-58.6m48.2 38.8h2.1c1.1 12.7 9.6 20.5 21.1 20.5 10.4 0 17.9-7.1 17.9-16.1 0-9.8-7.5-14.7-19.8-22.3-13.2-8.2-21-14.4-21-26.9s9.8-22.1 23.1-22.1c7.6 0 12.9 3 16 3 2 0 3.3-1.2 3.5-3h2.1v19.6h-2.1c-2-10.7-9-16.8-19.1-16.8-9.7 0-15.8 5.6-15.8 13.7 0 6.2 3.8 12.4 11.1 16.9 8.2 5.2 15.7 9.1 21.2 13.5 6.2 4.9 9.8 12 9.8 19.6 0 13.2-11.4 24.1-26.3 24.1-8 0-13.7-3.5-18.1-3.5-1.9 0-3.4 1.4-3.6 3.4h-2.1zm183.2-49.5c.9-2.4 1.2-4.7 1.2-6.5 0-4.4-3-6.8-8.7-6.8h-.6V185c5 .2 9.5.2 13.8.2 4.2 0 8.2 0 11.8-.2v2.1c-7.2 1.4-10.8 5.6-13.9 14.1l-26.5 72.2h-2l-23.5-65.8-24.1 65.8h-2l-25.7-71.3c-3.4-9.2-6-14.1-14-15V185c5.3.2 10.4.2 15.6.2 5.1 0 10.3 0 15.4-.2v2.1c-5.2 0-7.7 2.1-7.7 6.4 0 1.9.7 4 1.6 6.6l19.5 55.4 19.3-52.8c-3-10-7-15-14.1-15.6V185c5.3.2 10.4.2 15.6.2 5.1 0 10.3 0 15.4-.2v2.1c-5.2 0-7.7 2.1-7.7 6.4 0 1.9.7 4 1.6 6.6l19.5 55.4zm19.4 69c6.6-.1 10-4.6 13.3-14.3l24.6-72.2h8.7l24.7 74.5c2.7 8.1 6.2 12 11.5 12h1v2.2c-5-.2-9.9-.4-14.9-.4-5.1 0-10 .2-15.3.4v-2.2c5.3-.3 7.8-2.2 7.8-6.3 0-2-.7-3.9-1.5-6.3l-7.3-22.2h-28.5l-7.2 21.9c-.8 2.4-1.2 4.3-1.2 6 0 4.5 2.7 6.9 8.1 6.9v2.2c-4.2-.2-8.4-.4-12.3-.4s-7.8.2-11.5.4zm51.1-39.4-12.6-38.2L1325 230zm50.9 39.4c8.2-.2 11.2-5 11.2-15.9v-50.7c0-10.8-3-15.6-11.2-15.8v-2.1c5.5.2 11.4.2 17.4.2s12.1 0 18.5-.2v2.1h-1.2c-8.3 0-11.6 4.8-11.6 15.8v52.7c0 9.5 1.9 12.2 11.8 12.2h11.4c11.7 0 18.6-4.7 21-14.5h2.1l-4.5 18.3q-15.6-.3-31.8-.3c-16.2 0-21.9.1-33.1.3z"/><path fill="none" stroke="#373435" stroke-miterlimit="2.613" stroke-width="9.8" d="M157.6 299.4h1313"/></svg>